<?xml version="1.0" encoding="utf-8"?>
<!-- Generator: Adobe Illustrator 17.0.0, SVG Export Plug-In . SVG Version: 6.00 Build 0)  -->
<!DOCTYPE svg PUBLIC "-//W3C//DTD SVG 1.1//EN" "http://www.w3.org/Graphics/SVG/1.1/DTD/svg11.dtd">
<svg version="1.1" id="Layer_1" xmlns="http://www.w3.org/2000/svg" xmlns:xlink="http://www.w3.org/1999/xlink" x="0px" y="0px"
	 width="72px" height="72px" viewBox="0 0 72 72" enable-background="new 0 0 72 72" xml:space="preserve">
<g>
	<path fill="#898989" d="M69.993,61.285L50.719,42.002c2.635-4.213,4.166-9.206,4.166-14.539C54.885,12.297,42.6,0,27.447,0
		C12.295,0,0.006,12.297,0.006,27.463c0,15.16,12.289,27.451,27.44,27.451c5.358,0,10.37-1.545,14.599-4.209l19.261,19.274
		C62.635,71.302,64.366,72,66.092,72c0.008,0,0.014,0,0.021,0c1.501,0,3.033-0.558,4.181-1.701c1.165-1.167,1.716-2.706,1.712-4.224
		C72.006,64.348,71.317,62.612,69.993,61.285z M42.748,27.463c-0.015,8.433-6.867,15.295-15.301,15.311
		c-8.435-0.016-15.287-6.877-15.301-15.311c0.014-8.439,6.866-15.301,15.301-15.317C35.881,12.162,42.733,19.023,42.748,27.463z"/>
</g>
</svg>
